<mxfile host="app.diagrams.net" modified="2020-12-12T10:32:05.887Z" agent="5.0 (X11; Linux x86_64) AppleWebKit/537.36 (KHTML, like Gecko) Chrome/87.0.4280.66 Safari/537.36" etag="Cyb5vXOLVA7Q8k4vvrY5" version="13.10.2" type="github">
  <diagram id="bAJttqMwJDMj7OCoj_rZ" name="Page-1">
    <mxGraphModel dx="1350" dy="745" grid="1" gridSize="10" guides="1" tooltips="1" connect="1" arrows="1" fold="1" page="1" pageScale="1" pageWidth="1169" pageHeight="827" math="0" shadow="0">
      <root>
        <mxCell id="0" />
        <mxCell id="1" parent="0" />
        <mxCell id="z-0xal3OJAEe9CHAQEKu-7" style="edgeStyle=orthogonalEdgeStyle;rounded=0;orthogonalLoop=1;jettySize=auto;html=1;entryX=0.5;entryY=0;entryDx=0;entryDy=0;" edge="1" parent="1" source="z-0xal3OJAEe9CHAQEKu-1" target="z-0xal3OJAEe9CHAQEKu-4">
          <mxGeometry relative="1" as="geometry" />
        </mxCell>
        <mxCell id="z-0xal3OJAEe9CHAQEKu-8" style="edgeStyle=orthogonalEdgeStyle;rounded=0;orthogonalLoop=1;jettySize=auto;html=1;" edge="1" parent="1" source="z-0xal3OJAEe9CHAQEKu-1" target="z-0xal3OJAEe9CHAQEKu-5">
          <mxGeometry relative="1" as="geometry" />
        </mxCell>
        <mxCell id="z-0xal3OJAEe9CHAQEKu-10" style="edgeStyle=orthogonalEdgeStyle;rounded=0;orthogonalLoop=1;jettySize=auto;html=1;" edge="1" parent="1" source="z-0xal3OJAEe9CHAQEKu-1" target="z-0xal3OJAEe9CHAQEKu-6">
          <mxGeometry relative="1" as="geometry" />
        </mxCell>
        <mxCell id="z-0xal3OJAEe9CHAQEKu-20" style="edgeStyle=orthogonalEdgeStyle;rounded=0;orthogonalLoop=1;jettySize=auto;html=1;exitX=0;exitY=0;exitDx=0;exitDy=0;entryX=1;entryY=0.5;entryDx=0;entryDy=0;" edge="1" parent="1" source="z-0xal3OJAEe9CHAQEKu-1" target="z-0xal3OJAEe9CHAQEKu-3">
          <mxGeometry relative="1" as="geometry" />
        </mxCell>
        <mxCell id="z-0xal3OJAEe9CHAQEKu-1" value="Sistema de Leilões Online" style="ellipse;whiteSpace=wrap;html=1;aspect=fixed;" vertex="1" parent="1">
          <mxGeometry x="510" y="310" width="110" height="110" as="geometry" />
        </mxCell>
        <mxCell id="z-0xal3OJAEe9CHAQEKu-9" style="edgeStyle=orthogonalEdgeStyle;rounded=0;orthogonalLoop=1;jettySize=auto;html=1;" edge="1" parent="1" source="z-0xal3OJAEe9CHAQEKu-2" target="z-0xal3OJAEe9CHAQEKu-1">
          <mxGeometry relative="1" as="geometry" />
        </mxCell>
        <mxCell id="z-0xal3OJAEe9CHAQEKu-2" value="Leiloeiro" style="rounded=0;whiteSpace=wrap;html=1;" vertex="1" parent="1">
          <mxGeometry x="720" y="335" width="120" height="60" as="geometry" />
        </mxCell>
        <mxCell id="z-0xal3OJAEe9CHAQEKu-13" style="edgeStyle=orthogonalEdgeStyle;rounded=0;orthogonalLoop=1;jettySize=auto;html=1;entryX=0;entryY=0.364;entryDx=0;entryDy=0;entryPerimeter=0;" edge="1" parent="1" source="z-0xal3OJAEe9CHAQEKu-3" target="z-0xal3OJAEe9CHAQEKu-1">
          <mxGeometry relative="1" as="geometry">
            <mxPoint x="370" y="350" as="targetPoint" />
            <Array as="points">
              <mxPoint x="370" y="350" />
            </Array>
          </mxGeometry>
        </mxCell>
        <mxCell id="z-0xal3OJAEe9CHAQEKu-3" value="Usuário" style="rounded=0;whiteSpace=wrap;html=1;" vertex="1" parent="1">
          <mxGeometry x="310" y="200" width="120" height="60" as="geometry" />
        </mxCell>
        <mxCell id="z-0xal3OJAEe9CHAQEKu-4" value="Sistema de Pagamento" style="rounded=0;whiteSpace=wrap;html=1;" vertex="1" parent="1">
          <mxGeometry x="310" y="414" width="120" height="60" as="geometry" />
        </mxCell>
        <mxCell id="z-0xal3OJAEe9CHAQEKu-5" value="Sistema de Entrega" style="rounded=0;whiteSpace=wrap;html=1;" vertex="1" parent="1">
          <mxGeometry x="505" y="510" width="120" height="60" as="geometry" />
        </mxCell>
        <mxCell id="z-0xal3OJAEe9CHAQEKu-12" style="edgeStyle=orthogonalEdgeStyle;rounded=0;orthogonalLoop=1;jettySize=auto;html=1;" edge="1" parent="1" source="z-0xal3OJAEe9CHAQEKu-6" target="z-0xal3OJAEe9CHAQEKu-1">
          <mxGeometry relative="1" as="geometry">
            <mxPoint x="650" y="340" as="targetPoint" />
            <Array as="points">
              <mxPoint x="660" y="200" />
              <mxPoint x="660" y="340" />
            </Array>
          </mxGeometry>
        </mxCell>
        <mxCell id="z-0xal3OJAEe9CHAQEKu-6" value="Sistema de Notificações" style="rounded=0;whiteSpace=wrap;html=1;" vertex="1" parent="1">
          <mxGeometry x="505" y="170" width="120" height="60" as="geometry" />
        </mxCell>
        <mxCell id="z-0xal3OJAEe9CHAQEKu-14" value="mantém leilões" style="text;html=1;strokeColor=none;fillColor=none;align=center;verticalAlign=middle;whiteSpace=wrap;rounded=0;" vertex="1" parent="1">
          <mxGeometry x="720" y="400" width="90" height="20" as="geometry" />
        </mxCell>
        <mxCell id="z-0xal3OJAEe9CHAQEKu-16" value="mantém lotes em leilão" style="text;html=1;strokeColor=none;fillColor=none;align=center;verticalAlign=middle;whiteSpace=wrap;rounded=0;" vertex="1" parent="1">
          <mxGeometry x="706" y="420" width="160" height="20" as="geometry" />
        </mxCell>
        <mxCell id="z-0xal3OJAEe9CHAQEKu-18" value="mantém itens de lotes em leilão" style="text;html=1;strokeColor=none;fillColor=none;align=center;verticalAlign=middle;whiteSpace=wrap;rounded=0;" vertex="1" parent="1">
          <mxGeometry x="674" y="440" width="270" height="20" as="geometry" />
        </mxCell>
        <mxCell id="z-0xal3OJAEe9CHAQEKu-19" value="dá lance em um lote de leilão" style="text;html=1;strokeColor=none;fillColor=none;align=center;verticalAlign=middle;whiteSpace=wrap;rounded=0;" vertex="1" parent="1">
          <mxGeometry x="192" y="291" width="170" height="20" as="geometry" />
        </mxCell>
        <mxCell id="z-0xal3OJAEe9CHAQEKu-21" value="notifica usuário" style="text;html=1;strokeColor=none;fillColor=none;align=center;verticalAlign=middle;whiteSpace=wrap;rounded=0;" vertex="1" parent="1">
          <mxGeometry x="420" y="280" width="40" height="20" as="geometry" />
        </mxCell>
        <mxCell id="z-0xal3OJAEe9CHAQEKu-22" value="registra notificação" style="text;html=1;strokeColor=none;fillColor=none;align=center;verticalAlign=middle;whiteSpace=wrap;rounded=0;" vertex="1" parent="1">
          <mxGeometry x="580" y="260" width="40" height="20" as="geometry" />
        </mxCell>
        <mxCell id="z-0xal3OJAEe9CHAQEKu-24" value="envia notificação" style="text;html=1;strokeColor=none;fillColor=none;align=center;verticalAlign=middle;whiteSpace=wrap;rounded=0;" vertex="1" parent="1">
          <mxGeometry x="680" y="250" width="40" height="20" as="geometry" />
        </mxCell>
        <mxCell id="z-0xal3OJAEe9CHAQEKu-25" value="consulta custo de frete" style="text;html=1;strokeColor=none;fillColor=none;align=center;verticalAlign=middle;whiteSpace=wrap;rounded=0;" vertex="1" parent="1">
          <mxGeometry x="570" y="454" width="80" height="20" as="geometry" />
        </mxCell>
        <mxCell id="z-0xal3OJAEe9CHAQEKu-26" value="solicita cobrança" style="text;html=1;strokeColor=none;fillColor=none;align=center;verticalAlign=middle;whiteSpace=wrap;rounded=0;" vertex="1" parent="1">
          <mxGeometry x="390" y="375" width="40" height="20" as="geometry" />
        </mxCell>
        <mxCell id="z-0xal3OJAEe9CHAQEKu-27" value="consulta leilões" style="text;html=1;strokeColor=none;fillColor=none;align=center;verticalAlign=middle;whiteSpace=wrap;rounded=0;" vertex="1" parent="1">
          <mxGeometry x="180" y="250" width="120" height="20" as="geometry" />
        </mxCell>
        <mxCell id="z-0xal3OJAEe9CHAQEKu-28" value="visualiza lotes de um leilão" style="text;html=1;strokeColor=none;fillColor=none;align=center;verticalAlign=middle;whiteSpace=wrap;rounded=0;" vertex="1" parent="1">
          <mxGeometry x="196" y="270" width="150" height="20" as="geometry" />
        </mxCell>
      </root>
    </mxGraphModel>
  </diagram>
</mxfile>
